PathFileType	4	(X/Y/Z)	C:\Users\dbl\Desktop\20210112(1)\20210112\bx_n_10_1802.trc
DataRate	CameraRate	NumFrames	NumMarkers	Units	OrigDataRate	OrigDataStartFrame	OrigNumFrames
50.00	50.00	       6	43	mm	50.00	130	       518
Frame#	Time	Top.Head			R.Acromium			L.Acromium			Sternum			R.ASIS			L.ASIS			V.Sacral			R.Thigh.Upper			R.Thigh.Front			R.Thigh.Rear			R.Knee.Lat			R.Knee.Med			R.Shank.Upper			R.Shank.Front			R.Shank.Rear			R.Ankle.Lat			R.Midfoot.Lat			R.Toe.Lat			R.Toe.Tip			R.Toe.Med			R.Ankle.Med			R.Midfoot.Sup			R.Heel			L.Thigh.Upper			L.Thigh.Front			L.Thigh.Rear			L.Knee.Lat			L.Knee.Med			L.Shank.Upper			L.Shank.Front			L.Shank.Rear			L.Ankle.Lat			L.Midfoot.Lat			L.Toe.Lat			L.Toe.Tip			L.Toe.Med			L.Ankle.Med			L.Midfoot.Sup			L.Heel			origin1 front left			origin2 front right			origin 3 back right			origin 4 back leftt			
		X1	Y1	Z1	X2	Y2	Z2	X3	Y3	Z3	X4	Y4	Z4	X5	Y5	Z5	X6	Y6	Z6	X7	Y7	Z7	X8	Y8	Z8	X9	Y9	Z9	X10	Y10	Z10	X11	Y11	Z11	X12	Y12	Z12	X13	Y13	Z13	X14	Y14	Z14	X15	Y15	Z15	X16	Y16	Z16	X17	Y17	Z17	X18	Y18	Z18	X19	Y19	Z19	X20	Y20	Z20	X21	Y21	Z21	X22	Y22	Z22	X23	Y23	Z23	X24	Y24	Z24	X25	Y25	Z25	X26	Y26	Z26	X27	Y27	Z27	X28	Y28	Z28	X29	Y29	Z29	X30	Y30	Z30	X31	Y31	Z31	X32	Y32	Z32	X33	Y33	Z33	X34	Y34	Z34	X35	Y35	Z35	X36	Y36	Z36	X37	Y37	Z37	X38	Y38	Z38	X39	Y39	Z39	X40	Y40	Z40	X41	Y41	Z41	X42	Y42	Z42	X43	Y43	Z43	

130	2.580	-268.92920	119.74545	1112.08228	-442.09457	-47.45197	885.93311	-458.17349	280.60645	887.79041	-569.36169	96.21526	662.94611	-846.39917	11.37415	661.73962	-799.98273	240.66457	681.26050	-1014.20203	112.91534	697.22186	-811.72815	-78.01494	619.83221	-719.30499	-6.84986	677.13586	-703.81073	-74.72356	583.81573	-565.95959	-54.71788	541.32977	-530.02502	60.27684	533.79340	-551.13208	-51.83582	508.68069	-506.06592	-0.93238	461.35306	-621.29578	-53.16818	453.44507	-741.18726	-7.02211	210.99921	-649.02191	-64.68946	164.78091	-610.44934	-76.76699	156.61754	-547.20374	-35.29005	161.42570	-591.58112	25.83048	165.35764	-695.35107	79.56837	207.44901	-663.91602	58.39560	152.20377	-782.23010	55.86377	180.41461	-806.23206	305.06052	592.62634	-714.09583	220.08464	670.50287	-671.02844	300.36188	570.09167	-572.08801	281.38635	533.36584	-504.87817	164.33913	527.27979	-536.38037	272.35855	503.66321	-491.21674	225.28191	466.98248	-600.69562	277.72510	455.75171	-753.88458	221.76363	209.08316	-659.38623	294.83109	161.69724	-623.71484	302.82111	160.24091	-553.54724	257.17981	162.94057	-588.62317	216.33594	171.17818	-696.92877	145.74733	207.10722	-671.53259	171.11230	151.31902	-787.53613	168.89136	191.89955	-527.95996	304.43628	146.76373	-517.58582	-72.65237	143.12766	-876.36029	-78.70742	141.66788	-882.48334	296.11908	144.76479	
131	2.600	-271.43085	120.24566	1114.65186	-443.22388	-47.38791	886.19330	-459.23657	280.76746	888.42926	-570.06506	96.21104	666.57495	-846.00226	11.27874	664.64093	-799.75714	241.24741	680.39966	-1014.10736	113.31902	695.86328	-811.45935	-77.61439	619.11365	-719.09528	-5.97851	676.28156	-703.43060	-74.19502	583.38483	-565.44519	-54.12059	541.05750	-529.74976	60.92628	533.49731	-550.85730	-51.39047	508.50314	-505.80188	-0.57414	461.08536	-621.06750	-52.94703	453.40991	-741.24500	-7.06797	211.07104	-649.02435	-64.70707	164.79295	-610.50378	-76.67839	156.55029	-547.32819	-35.22627	161.43925	-591.67505	25.79363	165.37372	-695.52362	79.72961	207.34990	-663.98926	58.34688	152.15561	-782.26715	55.81226	180.38071	-805.76318	305.38498	591.67944	-713.88806	220.25322	669.88269	-670.59875	300.46033	569.60010	-571.41882	281.29456	533.39050	-504.54041	164.16408	527.06592	-535.97021	272.21191	503.54233	-491.05136	225.13974	466.77692	-600.57141	277.56473	455.62775	-753.85834	221.77361	209.14008	-659.39240	294.96481	161.62871	-623.75305	302.87756	160.13603	-553.50824	257.24902	162.84135	-588.64148	216.41995	171.25168	-696.88556	145.73643	207.06549	-671.52167	171.12645	151.41634	-787.50256	168.79353	192.00362	-527.97955	304.45270	146.75046	-517.56134	-72.64309	143.10254	-876.34460	-78.69222	141.64352	-882.49475	296.11389	144.76392	
132	2.620	-273.79279	120.66394	1117.42822	-444.26489	-47.51366	886.86536	-460.22021	280.92325	889.27411	-570.76807	96.21271	670.50055	-845.55298	11.16843	667.72101	-799.38690	241.73692	679.52307	-1013.91736	113.72946	694.64636	-811.05261	-77.15218	618.53223	-718.70154	-4.96499	675.46222	-702.95154	-73.62193	583.14911	-564.93811	-53.33551	540.84906	-529.42090	61.78263	533.23792	-550.50317	-50.66737	508.35107	-505.52997	-0.05398	460.85553	-620.87097	-52.44659	453.50211	-741.33679	-7.05841	211.10930	-649.03894	-64.72053	164.78561	-610.59015	-76.61337	156.46861	-547.45428	-35.19849	161.45715	-591.76971	25.74794	165.37614	-695.75006	79.95979	207.24588	-664.13776	58.20045	152.08745	-782.32080	55.78928	180.37283	-805.16772	305.55624	590.72473	-713.52856	220.23776	669.32153	-669.95129	300.35513	569.21320	-570.76044	281.08725	533.41162	-504.18976	163.67673	526.74744	-535.60364	272.03693	503.46179	-490.73526	224.65254	466.62704	-600.26263	277.18628	455.54868	-753.77393	221.78136	209.23962	-659.39423	295.03647	161.57397	-623.77051	302.91217	160.07011	-553.49133	257.31653	162.76335	-588.61365	216.45839	171.34050	-696.75616	145.73941	206.88034	-671.62079	171.20387	151.35646	-787.44165	168.73981	192.10794	-528.00128	304.47794	146.72832	-517.54834	-72.61131	143.01852	-876.32996	-78.66776	141.61763	-882.51636	296.12976	144.76271	
133	2.640	-275.99347	120.99084	1120.38440	-445.26038	-47.78970	888.04736	-461.16403	281.08896	890.29535	-571.46930	96.22052	674.72278	-845.05103	11.04328	670.97809	-798.83899	242.06871	678.67529	-1013.55927	114.14297	693.57770	-810.43488	-76.62563	618.06305	-718.14294	-4.02282	674.81665	-702.28656	-72.94878	582.98779	-564.32446	-52.40421	540.65704	-528.95551	62.76208	532.91376	-550.01300	-49.73314	508.24969	-505.16006	0.65966	460.62689	-620.58789	-51.66509	453.62015	-741.40442	-6.99912	211.13101	-649.04761	-64.72130	164.78001	-610.68225	-76.57665	156.39804	-547.53162	-35.19939	161.46036	-591.83942	25.71046	165.35622	-695.95148	80.19684	207.13991	-664.31049	57.96955	151.96367	-782.37482	55.79943	180.39876	-804.35706	305.62527	589.87512	-712.95337	220.05466	668.80505	-669.06982	300.00656	568.85345	-570.12219	280.77103	533.43494	-503.78436	162.87233	526.35352	-535.28308	271.83170	503.42255	-490.22748	223.80746	466.43185	-599.70801	276.61246	455.49283	-753.63300	221.79939	209.38394	-659.39813	295.02979	161.55838	-623.76453	302.91888	160.04863	-553.49036	257.36703	162.71840	-588.56287	216.42766	171.39133	-696.64697	145.69987	206.64439	-671.79388	171.33638	151.17397	-787.40204	168.78870	192.22615	-528.01953	304.51028	146.68576	-517.55267	-72.57053	142.94402	-876.31000	-78.65382	141.57764	-882.53583	296.14893	144.75487	
134	2.660	-278.05652	121.20204	1123.51746	-446.26776	-48.12534	889.71600	-462.08023	281.24332	891.53912	-572.16760	96.23474	679.24158	-844.49603	10.90335	674.41034	-798.08435	242.24991	677.96985	-1012.99170	114.51872	692.67578	-809.57770	-76.05893	617.66034	-717.38434	-3.29479	674.39899	-701.37622	-72.18434	582.76123	-563.49927	-51.44881	540.43011	-528.33905	63.73312	532.45624	-549.34631	-48.77029	508.20673	-504.64923	1.50726	460.31808	-620.11487	-50.66295	453.60522	-741.41736	-6.89986	211.18257	-649.02814	-64.69386	164.79918	-610.75006	-76.54361	156.35677	-547.52985	-35.22396	161.43878	-591.85046	25.70320	165.29846	-696.03235	80.39819	207.03050	-664.42224	57.75373	151.82321	-782.39954	55.83226	180.45255	-803.30286	305.63199	589.22327	-712.14111	219.77287	668.36658	-667.97314	299.45920	568.45270	-569.51282	280.35196	533.46576	-503.25122	161.83539	525.93860	-535.01062	271.59436	503.42535	-489.54724	222.75249	466.12286	-598.93201	275.91101	455.42389	-753.44489	221.84258	209.55414	-659.40338	294.96014	161.59262	-623.73340	302.89667	160.05994	-553.49402	257.38675	162.69894	-588.51746	216.33801	171.40396	-696.56744	145.60252	206.45302	-671.99933	171.48985	150.94164	-787.38593	168.88097	192.36140	-528.02185	304.52762	146.63791	-517.56500	-72.54470	142.92764	-876.28937	-78.66513	141.53545	-882.55347	296.15582	144.74751	
135	2.680	-280.03375	121.26133	1126.84692	-447.28189	-48.47849	891.81018	-462.97961	281.37598	893.09766	-572.86157	96.25561	684.05682	-843.88776	10.74869	678.01599	-797.12518	242.34854	677.56641	-1012.24835	114.81113	691.98877	-808.53333	-75.52471	617.32043	-716.38055	-2.78466	674.16412	-700.26257	-71.43323	582.42725	-562.48877	-50.64758	540.18420	-527.60040	64.56368	531.93884	-548.51550	-47.95289	508.16827	-503.95776	2.35311	459.93350	-619.45154	-49.61269	453.40857	-741.36279	-6.75627	211.32495	-648.96521	-64.62281	164.85736	-610.78058	-76.50089	156.36282	-547.43542	-35.28599	161.41579	-591.78473	25.73728	165.19800	-695.91840	80.56720	206.96519	-664.40143	57.65964	151.78497	-782.34985	55.87895	180.53754	-802.05707	305.61942	588.82825	-711.09686	219.50412	668.08472	-666.70435	298.87695	568.07471	-568.94128	279.83582	533.50922	-502.53540	160.75992	525.53278	-534.78857	271.32312	503.47113	-488.74918	221.72812	465.70264	-598.01459	275.20587	455.32227	-753.23145	221.92290	209.73674	-659.38855	294.85095	161.66188	-623.67706	302.84537	160.09198	-553.48956	257.38300	162.68077	-588.48523	216.23236	171.41939	-696.46210	145.50873	206.35109	-672.16718	171.61948	150.75723	-787.34241	168.92337	192.53371	-528.00372	304.50479	146.61317	-517.57471	-72.55381	142.96613	-876.27026	-78.68221	141.49988	-882.57098	296.15283	144.74895	
